#!OML:ASF I:\Actors\actors\Patient Classification 2\Patient 1\Session 1\actor1.ASF
:FULLY-SPECIFIED
:DEGREES
550
root -1.67314 18.0501 8.4906 -0.947205 11.1965 1.63315
lowerback 12.6958 -3.41617 -0.855233
upperback 5.89995 -4.45591 5.94299
thorax -0.331077 -2.33172 7.30163
lowerneck -6.93006 1.45188 -21.0637
upperneck 45.8562 10.3283 -5.23979
head 18.6093 0.0794266 2.78887
rclavicle 5.00937e-014 1.43125e-014
rhumerus -4.10882 -13.5309 -81.9855
rradius 54.4749
rwrist -45.3036
rhand -23.4287 -53.1009
rfingers 7.12502
rthumb 3.02914 -83.0592
lclavicle 5.00937e-014 1.43125e-014
lhumerus -16.7095 -17.9428 78.4532
lradius 79.7237
lwrist 37.2757
lhand 24.6557 -6.40152
lfingers 7.12502
lthumb 48.8449 15.4073
rfemur -7.29435 -5.97272 15.8519
rtibia 37.2204
rfoot -30.949 -4.30896
rtoes -6.97974
lfemur -14.247 -4.137 -16.1413
ltibia 41.0626
lfoot -24.391 -1.83146
ltoes -56.3564
551
root -1.68641 18.018 8.54063 -1.98989 10.8937 2.00652
lowerback 12.3561 -3.37531 -0.825703
upperback 6.13652 -4.43027 5.35138
thorax 0.0403743 -2.31944 6.60838
lowerneck -6.54167 1.30925 -19.5492
upperneck 45.7392 9.55322 -5.20825
head 18.4638 0.0363748 2.44653
rclavicle 5.12864e-014 -2.38542e-014
rhumerus -4.55565 -13.0089 -82.3246
rradius 49.8102
rwrist -38.5995
rhand -21.7146 -53.2838
rfingers 7.12502
rthumb 4.68439 -83.212
lclavicle 5.12864e-014 -2.38542e-014
lhumerus -15.2158 -16.4511 79.6524
lradius 78.1514
lwrist 35.7532
lhand 22.738 -7.35557
lfingers 7.12502
lthumb 47.0766 15.2768
rfemur -6.12028 -5.54995 15.4375
rtibia 37.6311
rfoot -31.3625 -4.21413
rtoes -6.81934
lfemur -12.8275 -3.59626 -16.4872
ltibia 41.1096
lfoot -24.5052 -2.05277
ltoes -56.5103
552
root -1.69608 17.9838 8.59163 -3.08475 10.6102 2.28521
lowerback 12.0567 -3.33359 -0.735817
upperback 6.36546 -4.39202 4.73189
thorax 0.374175 -2.29584 5.86035
lowerneck -6.23519 1.12108 -18.1931
upperneck 45.7625 8.67884 -4.87529
head 18.3922 -0.0557579 2.25391
rclavicle 1.15295e-014 -5.56597e-014
rhumerus -5.22632 -11.8439 -82.418
rradius 45.1243
rwrist -31.6905
rhand -19.4975 -50.7987
rfingers 7.12502
rthumb 6.82494 -80.6687
lclavicle 1.15295e-014 -5.56597e-014
lhumerus -13.987 -15.2574 80.8381
lradius 76.6568
lwrist 33.8984
lhand 20.6899 -8.57021
lfingers 7.12502
lthumb 45.1772 14.8592
rfemur -4.88316 -5.17296 15.1036
rtibia 38.0092
rfoot -31.7196 -4.14642
rtoes -7.28478
lfemur -11.393 -2.90469 -16.6819
ltibia 41.1724
lfoot -24.6025 -2.39823
ltoes -56.7785
553
root -1.70549 17.9483 8.64314 -4.13962 10.158 2.53832
lowerback 11.6863 -3.23208 -0.64432
upperback 6.61089 -4.27408 4.05702
thorax 0.752464 -2.23012 5.0465
lowerneck -6.07419 0.917793 -16.917
upperneck 45.8912 7.78809 -4.36379
head 18.4064 -0.161285 2.1542
rclavicle 7.95139e-015 -7.95139e-015
rhumerus -6.21049 -9.52164 -82.4035
rradius 41.5476
rwrist -24.7565
rhand -17.896 -49.7944
rfingers 7.12502
rthumb 8.37068 -79.6085
lclavicle 7.95139e-015 -7.95139e-015
lhumerus -13.1106 -14.304 82.0193
lradius 75.2677
lwrist 31.4357
lhand 17.8597 -10.3772
lfingers 7.12502
lthumb 42.5362 14.0306
rfemur -3.73225 -4.71499 14.8159
rtibia 38.3806
rfoot -32.0611 -4.0452
rtoes -7.86585
lfemur -9.96982 -2.13585 -16.8112
ltibia 41.2249
lfoot -24.7841 -2.75925
ltoes -56.9956
554
root -1.71293 17.9104 8.69567 -5.17326 9.56669 2.89823
lowerback 11.2846 -3.07254 -0.618954
upperback 6.87953 -4.08296 3.27138
thorax 1.16616 -2.12584 4.15234
lowerneck -6.00986 0.729083 -15.5297
upperneck 46.0577 6.93766 -3.88357
head 18.4743 -0.240251 2.02362
rclavicle -2.70347e-014 1.11319e-014
rhumerus -7.42844 -6.66549 -82.3139
rradius 39.1388
rwrist -16.5825
rhand -13.6291 -51.6799
rfingers 7.12502
rthumb 12.4867 -81.2869
lclavicle -2.70347e-014 1.11319e-014
lhumerus -12.6682 -13.6274 83.1165
lradius 74.0861
lwrist 28.6711
lhand 14.2066 -12.4846
lfingers 7.12502
lthumb 39.1043 13.0055
rfemur -2.63959 -4.26172 14.4181
rtibia 38.7838
rfoot -32.3899 -3.8923
rtoes -8.31062
lfemur -8.48447 -1.41653 -17.0584
ltibia 41.2459
lfoot -25.0721 -2.96744
ltoes -57.185
555
root -1.71873 17.8712 8.74832 -6.13972 9.00945 3.35798
lowerback 10.9076 -2.89839 -0.694425
upperback 7.0771 -3.873 2.42978
thorax 1.50044 -2.01047 3.26771
lowerneck -5.84643 0.56034 -14.171
upperneck 46.1784 6.09144 -3.40053
head 18.4884 -0.311953 1.89215
rclavicle 3.57812e-014 6.36111e-015
rhumerus -9.07051 -2.95358 -82.2807
rradius 37.4875
rwrist -8.15275
rhand -8.66299 -53.1766
rfingers 7.12502
rthumb 17.2708 -82.4292
lclavicle 3.57812e-014 6.36111e-015
lhumerus -12.7683 -13.3216 84.1508
lradius 73.1662
lwrist 26.0042
lhand 9.60796 -14.6347
lfingers 7.12502
lthumb 34.7544 11.9784
rfemur -1.63929 -3.93234 13.9027
rtibia 39.2651
rfoot -32.697 -3.69816
rtoes -8.80208
lfemur -7.03238 -0.842946 -17.4221
ltibia 41.2256
lfoot -25.3411 -3.03662
ltoes -57.2902
556
root -1.72642 17.833 8.80196 -7.00119 8.45777 3.8189
lowerback 10.5205 -2.69088 -0.906497
upperback 7.17657 -3.62219 1.63615
thorax 1.7552 -1.87795 2.51575
lowerneck -5.59951 0.395056 -12.8426
upperneck 46.2829 5.27448 -2.99321
head 18.4785 -0.380639 1.72806
rclavicle -6.55989e-015 -3.97569e-015
rhumerus -10.9794 1.0831 -82.401
rradius 36.4987
rwrist 1.19286
rhand -7.10565 -48.9311
rfingers 7.12502
rthumb 18.7692 -78.0455
lclavicle -6.55989e-015 -3.97569e-015
lhumerus -13.336 -13.2863 85.182
lradius 72.3486
lwrist 23.7186
lhand 4.38133 -16.8697
lfingers 7.12502
lthumb 29.7797 10.7572
rfemur -0.80918 -3.61099 13.4083
rtibia 39.8515
rfoot -32.982 -3.50908
rtoes -9.43922
lfemur -5.69061 -0.445873 -17.7994
ltibia 41.1885
lfoot -25.5859 -2.98129
ltoes -57.3563
557
root -1.73658 17.7939 8.85811 -7.78064 7.81897 4.26221
lowerback 10.084 -2.41705 -1.2821
upperback 7.21158 -3.28924 0.943552
thorax 1.98939 -1.71179 1.95839
lowerneck -5.36215 0.230621 -11.5295
upperneck 46.4178 4.53224 -2.71754
head 18.4999 -0.437791 1.5116
rclavicle 5.76476e-015 1.35174e-014
rhumerus -13.1664 5.98285 -82.7185
rradius 36.1122
rwrist 9.97081
rhand -8.04254 -44.5052
rfingers 7.12502
rthumb 17.8679 -73.7044
lclavicle 5.76476e-015 1.35174e-014
lhumerus -14.1978 -13.3759 86.2745
lradius 71.588
lwrist 22.1181
lhand -0.918811 -19.1609
lfingers 7.12502
lthumb 24.71 9.26342
rfemur -0.142002 -3.2631 12.9433
rtibia 40.5285
rfoot -33.1869 -3.34872
rtoes -10.5563
lfemur -4.43686 0.00904959 -18.1338
ltibia 41.1797
lfoot -25.8952 -2.84023
ltoes -57.6105
558
root -1.74836 17.7517 8.91408 -8.43113 7.22164 4.61655
lowerback 9.59372 -2.13655 -1.69714
upperback 7.14995 -2.94241 0.359799
thorax 2.16534 -1.54157 1.54022
lowerneck -5.05324 0.0612073 -10.4251
upperneck 46.5711 3.80828 -2.39726
head 18.5123 -0.514988 1.35273
rclavicle -4.67144e-015 6.36111e-015
rhumerus -15.5235 11.1287 -83.1554
rradius 37.2993
rwrist 17.1664
rhand -3.45188 -43.3111
rfingers 7.12502
rthumb 22.2802 -72.0467
lclavicle -4.67144e-015 6.36111e-015
lhumerus -15.361 -13.6178 87.4029
lradius 70.9428
lwrist 21.2256
lhand -6.17969 -21.6625
lfingers 7.12502
lthumb 19.6596 7.36342
rfemur 0.338391 -3.0525 12.5334
rtibia 41.2516
rfoot -33.343 -3.0274
rtoes -11.5519
lfemur -3.38439 0.468084 -18.3402
ltibia 41.2399
lfoot -26.2695 -2.83472
ltoes -57.7578
